<svg width="32" height="32" viewBox="0 0 32 32" fill="none" xmlns="http://www.w3.org/2000/svg">
  <circle cx="16" cy="16" r="5" stroke="#00d9ff" stroke-width="2" fill="none"/>
  <path d="M16 3L17.5 6.5L21 8L17.5 9.5L16 13L14.5 9.5L11 8L14.5 6.5L16 3Z" fill="#00d9ff" opacity="0.7"/>
  <path d="M16 29L17.5 25.5L21 24L17.5 22.5L16 19L14.5 22.5L11 24L14.5 25.5L16 29Z" fill="#00d9ff" opacity="0.7"/>
  <path d="M29 16L25.5 17.5L24 21L22.5 17.5L19 16L22.5 14.5L24 11L25.5 14.5L29 16Z" fill="#00d9ff" opacity="0.7"/>
  <path d="M3 16L6.5 17.5L8 21L9.5 17.5L13 16L9.5 14.5L8 11L6.5 14.5L3 16Z" fill="#00d9ff" opacity="0.7"/>
  <circle cx="16" cy="16" r="3" fill="#00d9ff" opacity="0.3"/>
</svg>
